<svg xmlns="http://www.w3.org/2000/svg"> 
<symbol id="background" width="71" height="71" viewBox="0 0 71 71" fill="none">
  <mask id="path-1-inside-1_177_1735" fill="white">
    <path d="M0 12C0 5.37258 5.37258 0 12 0H59C65.6274 0 71 5.37258 71 12V59C71 65.6274 65.6274 71 59 71H12C5.37258 71 0 65.6274 0 59V12Z" />
  </mask>
  <path d="M0 12C0 5.37258 5.37258 0 12 0H59C65.6274 0 71 5.37258 71 12V59C71 65.6274 65.6274 71 59 71H12C5.37258 71 0 65.6274 0 59V12Z" fill="url(#paint0_linear_177_1735)" fill-opacity="0.11" />
  <g clip-path="url(#paint1_diamond_177_1735_clip_path)" data-figma-skip-parse="true" mask="url(#path-1-inside-1_177_1735)">
    <g transform="matrix(-0.0337561 0.0332097 -0.0332097 -0.0792532 35.5 35.5)">
      <rect x="0" y="0" width="1116.25" height="664.666" fill="url(#paint1_diamond_177_1735)" opacity="1" shape-rendering="crispEdges" />
      <rect x="0" y="0" width="1116.25" height="664.666" transform="scale(1 -1)" fill="url(#paint1_diamond_177_1735)" opacity="1" shape-rendering="crispEdges" />
      <rect x="0" y="0" width="1116.25" height="664.666" transform="scale(-1 1)" fill="url(#paint1_diamond_177_1735)" opacity="1" shape-rendering="crispEdges" />
      <rect x="0" y="0" width="1116.25" height="664.666" transform="scale(-1)" fill="url(#paint1_diamond_177_1735)" opacity="1" shape-rendering="crispEdges" />
    </g>
  </g>
  <path d="M12 0V2H59V0V-2H12V0ZM71 12H69V59H71H73V12H71ZM59 71V69H12V71V73H59V71ZM0 59H2V12H0H-2V59H0ZM12 71V69C6.47715 69 2 64.5229 2 59H0H-2C-2 66.732 4.26801 73 12 73V71ZM71 59H69C69 64.5229 64.5229 69 59 69V71V73C66.732 73 73 66.732 73 59H71ZM59 0V2C64.5229 2 69 6.47715 69 12H71H73C73 4.26801 66.732 -2 59 -2V0ZM12 0V-2C4.26801 -2 -2 4.26801 -2 12H0H2C2 6.47715 6.47715 2 12 2V0Z" data-figma-gradient-fill="{&#34;type&#34;:&#34;GRADIENT_DIAMOND&#34;,&#34;stops&#34;:[{&#34;color&#34;:{&#34;r&#34;:0.28627452254295349,&#34;g&#34;:0.72549021244049072,&#34;b&#34;:0.90980392694473267,&#34;a&#34;:1.0},&#34;position&#34;:0.0},{&#34;color&#34;:{&#34;r&#34;:0.12156862020492554,&#34;g&#34;:0.30196088552474976,&#34;b&#34;:0.37647059559822083,&#34;a&#34;:0.43000000715255737},&#34;position&#34;:1.0}],&#34;stopsVar&#34;:[],&#34;transform&#34;:{&#34;m00&#34;:-67.512283325195312,&#34;m01&#34;:-66.419357299804688,&#34;m02&#34;:102.46582031250,&#34;m10&#34;:66.419357299804688,&#34;m11&#34;:-158.50631713867188,&#34;m12&#34;:81.543487548828125},&#34;opacity&#34;:1.0,&#34;blendMode&#34;:&#34;NORMAL&#34;,&#34;visible&#34;:true}" mask="url(#path-1-inside-1_177_1735)" />
  <defs>
    <clipPath id="paint1_diamond_177_1735_clip_path">
      <path d="M12 0V2H59V0V-2H12V0ZM71 12H69V59H71H73V12H71ZM59 71V69H12V71V73H59V71ZM0 59H2V12H0H-2V59H0ZM12 71V69C6.47715 69 2 64.5229 2 59H0H-2C-2 66.732 4.26801 73 12 73V71ZM71 59H69C69 64.5229 64.5229 69 59 69V71V73C66.732 73 73 66.732 73 59H71ZM59 0V2C64.5229 2 69 6.47715 69 12H71H73C73 4.26801 66.732 -2 59 -2V0ZM12 0V-2C4.26801 -2 -2 4.26801 -2 12H0H2C2 6.47715 6.47715 2 12 2V0Z" />
    </clipPath>
    <linearGradient id="paint0_linear_177_1735" x1="35.5" y1="0" x2="35.5" y2="71" gradientUnits="userSpaceOnUse">
      <stop stop-color="#00E0FF" />
      <stop offset="1" stop-color="#00E0FF" stop-opacity="0.49" />
    </linearGradient>
    <linearGradient id="paint1_diamond_177_1735" x1="0" y1="0" x2="500" y2="500" gradientUnits="userSpaceOnUse">
      <stop stop-color="#49B9E8" />
      <stop offset="1" stop-color="#1F4D60" stop-opacity="0.43" />
    </linearGradient>
  </defs>
</symbol>
<symbol id="sertificate" width="39" height="39" viewBox="0 0 39 39" fill="none">
  <path d="M0.633852 0C0.262133 0.0700782 -0.00599195 0.399141 0.000101798 0.78V31.98C0.000101798 32.4096 0.350493 32.76 0.780102 32.76H13.2601V31.2H1.5601V1.56H37.4401V31.2H25.7401V32.76H38.2201C38.6497 32.76 39.0001 32.4096 39.0001 31.98V0.78C39.0001 0.350391 38.6497 0 38.2201 0H0.780102C0.755727 0 0.731352 0 0.706977 0C0.682602 0 0.658227 0 0.633852 0ZM7.8001 7.02V8.58H31.2001V7.02H7.8001ZM7.8001 10.92V12.48H31.2001V10.92H7.8001ZM7.8001 14.82V16.38H31.2001V14.82H7.8001ZM19.427 18.6469C18.6104 18.6469 17.9614 19.1344 17.5501 19.7925C16.7884 19.5487 15.9566 19.6219 15.332 20.1581C14.6982 20.7005 14.5032 21.5048 14.6007 22.2787C13.8573 22.5895 13.2814 23.1806 13.1139 23.9362C13.1139 23.9606 13.1139 23.985 13.1139 24.0094C13.0194 24.762 13.3546 25.4505 13.8939 25.9837C13.5404 26.6906 13.4094 27.5102 13.8207 28.2262C14.0523 28.6315 14.4149 28.8966 14.8201 29.0794V38.22C14.8262 38.4942 14.9785 38.7471 15.2162 38.8812C15.4569 39.0183 15.7524 39.0152 15.9901 38.8781L19.5001 36.7819L23.0101 38.8781C23.2478 39.0152 23.5433 39.0183 23.784 38.8812C24.0217 38.7471 24.174 38.4942 24.1801 38.22V28.7625C24.3629 28.6284 24.5305 28.4913 24.6676 28.2994C24.6767 28.275 24.6859 28.2506 24.692 28.2262C25.0911 27.5255 24.9997 26.7302 24.6676 26.0325C25.3653 25.5176 25.8254 24.7802 25.7401 24.0094C25.734 23.985 25.7249 23.9606 25.7157 23.9362C25.539 23.1471 24.954 22.5743 24.2289 22.2544C24.3172 21.4896 24.1496 20.6974 23.522 20.1581C22.873 19.6036 22.0442 19.5884 21.3039 19.7925C20.8895 19.1557 20.2679 18.6469 19.427 18.6469ZM19.427 20.2069C19.7835 20.2069 20.0424 20.4202 20.1826 20.7919C20.2679 21.0112 20.4446 21.1819 20.6701 21.255C20.6823 21.2611 20.7859 21.2641 20.8164 21.2794C20.856 21.2916 20.8255 21.3037 20.9139 21.3037C20.987 21.3312 20.99 21.3769 21.1332 21.3769C21.2612 21.3738 21.3861 21.3403 21.4989 21.2794C21.9132 21.0722 22.2027 21.0752 22.4982 21.3281C22.806 21.5932 22.8699 21.9405 22.742 22.2787C22.6506 22.5499 22.7176 22.8485 22.9126 23.0587C22.9431 23.1197 22.9766 23.2202 23.0832 23.3269C23.1899 23.4366 23.3239 23.5127 23.4732 23.5462C23.9089 23.6437 24.0765 23.8327 24.1801 24.2531C24.2106 24.6127 24.1527 24.8077 23.5951 25.0087C23.2874 25.1215 23.0832 25.414 23.0832 25.74V26.0569C23.0863 26.2153 23.1381 26.3677 23.2295 26.4956C23.4519 26.8095 23.4702 27.1751 23.3514 27.4219C23.1106 27.7266 22.7633 27.8972 22.4739 27.8606C22.2392 27.8332 22.0077 27.9155 21.8401 28.08L21.5964 28.2994C21.4501 28.4487 21.3709 28.6528 21.377 28.86C21.377 29.2744 21.2155 29.4846 20.8651 29.6156C20.856 29.6156 20.8499 29.6156 20.8407 29.6156C20.8407 29.6065 20.7128 29.64 20.597 29.64C20.3898 29.64 20.1826 29.5425 19.9632 29.3231C19.82 29.183 19.6281 29.1068 19.427 29.1037H19.037C18.8298 29.0977 18.6256 29.1769 18.4764 29.3231C18.1625 29.637 17.9035 29.7284 17.5989 29.6156C17.3003 29.5029 17.087 29.1586 17.087 28.86C17.0839 28.6467 16.9986 28.4456 16.8432 28.2994L16.6239 28.08C16.4502 27.9094 16.2064 27.8271 15.9657 27.8606C15.658 27.9002 15.3381 27.7387 15.1857 27.4706C15.0456 27.2238 15.073 26.8247 15.3076 26.4956C15.399 26.3677 15.4508 26.2153 15.4539 26.0569V25.74C15.4508 25.4536 15.2924 25.1916 15.0395 25.0575C14.8323 24.9387 14.6647 24.5487 14.6739 24.2531C14.7805 23.8235 14.9755 23.5828 15.3076 23.5462C15.4813 23.528 15.6458 23.4487 15.7707 23.3269C15.8896 23.208 15.9383 23.0862 15.9657 23.0344C16.1364 22.8211 16.1821 22.5347 16.0876 22.2787C15.9596 21.9405 16.0236 21.5932 16.3314 21.3281C16.6299 21.0722 17.0382 21.0722 17.2576 21.2306C17.4953 21.3952 17.806 21.4134 18.062 21.2794C18.0711 21.2794 18.0772 21.2794 18.0864 21.2794C18.1107 21.2733 18.1351 21.2641 18.1595 21.255C18.4246 21.1758 18.6287 20.9625 18.6957 20.6944C18.7567 20.4567 19.0705 20.2069 19.427 20.2069ZM22.6201 29.8594V36.855L19.8901 35.2219C19.6494 35.0817 19.3508 35.0817 19.1101 35.2219L16.3801 36.855V30.6637C16.5629 30.8374 16.7792 30.9806 17.0382 31.0781C17.8121 31.3676 18.5556 31.0873 19.1589 30.6637C19.1649 30.6607 19.1771 30.6668 19.1832 30.6637C19.1893 30.6668 19.2015 30.6607 19.2076 30.6637C19.5824 30.9502 20.0333 31.2 20.597 31.2C20.7371 31.2 21.0388 31.197 21.4014 31.0537C21.4135 31.0416 21.4349 31.0355 21.4501 31.0294C21.4714 31.0202 21.4775 31.0416 21.4989 31.0294V31.005C22.0138 30.7795 22.3946 30.3652 22.6201 29.8594Z" fill="url(#paint0_linear_177_1739)" />
  <defs>
    <linearGradient id="paint0_linear_177_1739" x1="44.0001" y1="1.1148e-06" x2="0.000130127" y2="39" gradientUnits="userSpaceOnUse">
      <stop offset="0.25" stop-color="#3B768F" />
      <stop offset="0.536458" stop-color="#3EC6FF" />
      <stop offset="0.817708" stop-color="#3B768F" />
    </linearGradient>
  </defs>
</symbol>
</svg>